HIERARCHY
ROOT Hips
{
	OFFSET -0.001795 -0.223333 0.028219
	CHANNELS 6 Xposition Yposition Zposition Zrotation Yrotation Xrotation 
	JOINT LeftUpLeg
	{
		OFFSET 0.069520 -0.091406 -0.006815
		CHANNELS 3 Zrotation Yrotation Xrotation
		JOINT LeftLeg
		{
			OFFSET 0.034277 -0.375199 -0.004496
			CHANNELS 3 Zrotation Yrotation Xrotation
			JOINT LeftFoot
			{
				OFFSET -0.013596 -0.397961 -0.043693
				CHANNELS 3 Zrotation Yrotation Xrotation
				JOINT LeftToe
				{
					OFFSET 0.026358 -0.055791 0.119288
					CHANNELS 3 Zrotation Yrotation Xrotation
					End Site
					{
						OFFSET 0.000000 0.000000 0.000000
					}
				}
			}
		}
	}
	JOINT RightUpLeg
	{
		OFFSET -0.067670 -0.090522 -0.004320
		CHANNELS 3 Zrotation Yrotation Xrotation
		JOINT RightLeg
		{
			OFFSET -0.038290 -0.382569 -0.008850
			CHANNELS 3 Zrotation Yrotation Xrotation
			JOINT RightFoot
			{
				OFFSET 0.015774 -0.398415 -0.042312
				CHANNELS 3 Zrotation Yrotation Xrotation
				JOINT RightToe
				{
					OFFSET -0.025372 -0.048144 0.123348
					CHANNELS 3 Zrotation Yrotation Xrotation
					End Site
					{
						OFFSET 0.000000 0.000000 0.000000
					}
				}
			}
		}
	}
	JOINT Spine
	{
		OFFSET -0.002533 0.108963 -0.026696
		CHANNELS 3 Zrotation Yrotation Xrotation
		JOINT Spine1
		{
			OFFSET 0.005487 0.135180 0.001092
			CHANNELS 3 Zrotation Yrotation Xrotation
			JOINT Spine2
			{
				OFFSET 0.001457 0.052922 0.025425
				CHANNELS 3 Zrotation Yrotation Xrotation
				JOINT Neck
				{
					OFFSET -0.002778 0.213870 -0.042857
					CHANNELS 3 Zrotation Yrotation Xrotation
					JOINT Head
					{
						OFFSET 0.005152 0.064970 0.051349
						CHANNELS 3 Zrotation Yrotation Xrotation
						End Site
						{
							OFFSET 0.000000 0.000000 0.000000
						}
					}
				}
				JOINT LeftShoulder
				{
					OFFSET 0.078845 0.121749 -0.034090
					CHANNELS 3 Zrotation Yrotation Xrotation
					JOINT LeftArm
					{
						OFFSET 0.090977 0.030469 -0.008868
						CHANNELS 3 Zrotation Yrotation Xrotation
						JOINT LeftForeArm
						{
							OFFSET 0.259612 -0.012772 -0.027456
							CHANNELS 3 Zrotation Yrotation Xrotation
							JOINT LeftHand
							{
								OFFSET 0.249234 0.008986 -0.001171
								CHANNELS 3 Zrotation Yrotation Xrotation
								End Site
								{
									OFFSET 0.000000 0.000000 0.000000
								}
							}
						}
					}
				}
				JOINT RightShoulder
				{
					OFFSET -0.081759 0.118833 -0.038615
					CHANNELS 3 Zrotation Yrotation Xrotation
					JOINT RightArm
					{
						OFFSET -0.096012 0.032551 -0.009143
						CHANNELS 3 Zrotation Yrotation Xrotation
						JOINT RightForeArm
						{
							OFFSET -0.253742 -0.013329 -0.021401
							CHANNELS 3 Zrotation Yrotation Xrotation
							JOINT RightHand
							{
								OFFSET -0.255298 0.007772 -0.005559
								CHANNELS 3 Zrotation Yrotation Xrotation
								End Site
								{
									OFFSET 0.000000 0.000000 0.000000
								}
							}
						}
					}
				}
			}
		}
	}
}
MOTION
Frames: 6
Frame Time: 0.050000
0.044734 0.945739 0.046360 -3.798350 -2.129065 1.320042 5.718478 0.232844 6.789586 -1.989075 0.296408 -4.317389 1.743775 6.159631 7.765960 0.000000 0.000000 0.000000 -5.826214 0.953007 -14.902964 7.543657 -1.386044 28.798166 -10.639241 -23.809457 22.025383 0.000000 0.000000 0.000000 5.009026 -0.398362 3.952717 -7.919765 2.684215 -19.718932 0.285130 6.491312 30.694321 11.898047 -2.397575 -38.294500 0.000000 0.000000 0.000000 -31.881005 -13.480869 4.932218 -32.451484 -4.690030 -3.777915 7.028085 -37.048649 -0.975197 0.000000 0.000000 0.000000 39.001457 -1.682726 -1.132573 45.681260 1.638317 -7.092241 -5.270505 31.758407 0.626667 0.000000 0.000000 0.000000 
0.047784 0.944729 0.064706 -4.423163 -1.556121 1.138408 6.361661 0.227631 8.178326 -2.115175 0.304891 -4.420577 1.530878 5.696639 7.316773 0.000000 0.000000 0.000000 -5.165610 1.293885 -19.675321 10.238779 -2.436574 28.485612 -19.371995 -32.539434 34.680406 0.000000 0.000000 0.000000 5.075141 -0.462861 4.675713 -7.186735 2.482762 -19.853716 -0.092528 5.059506 31.197146 10.599391 -2.051285 -37.781471 0.000000 0.000000 0.000000 -32.273097 -14.760162 6.370423 -31.247695 -6.380267 -3.433874 10.438500 -38.870783 -2.158784 0.000000 0.000000 0.000000 38.600591 -1.567509 -1.582505 46.958055 0.253898 -7.586387 -6.467947 33.725543 0.334817 0.000000 0.000000 0.000000 
0.049493 0.941420 0.087149 -5.013266 -1.262600 1.436915 6.756296 0.242862 10.036360 -1.815011 0.304303 -5.685993 1.525111 5.525252 6.720718 0.000000 0.000000 0.000000 -4.264951 1.615073 -22.508899 10.332721 -2.154960 21.565306 -20.232947 -33.701034 33.541638 0.000000 0.000000 0.000000 5.668673 -0.504635 4.714143 -6.677383 2.362822 -19.265942 -1.134519 4.197818 30.636320 10.815129 -2.088585 -38.684316 0.000000 0.000000 0.000000 -32.363973 -16.314156 7.780218 -29.512620 -7.621451 -3.046669 12.853101 -39.770110 -3.079630 0.000000 0.000000 0.000000 39.181961 -2.283154 -2.638898 46.973589 -0.997711 -7.852621 -6.552242 34.791293 0.281655 0.000000 0.000000 0.000000 
0.049681 0.935967 0.113762 -4.930610 -0.765552 1.415153 6.424826 0.342043 12.330046 -1.215128 0.289286 -6.696479 1.461430 5.180579 5.893842 0.000000 0.000000 0.000000 -3.861427 1.799143 -24.455694 9.192240 -1.506537 13.269455 -11.686761 -25.358086 19.955062 0.000000 0.000000 0.000000 5.939370 -0.593767 5.491977 -6.894288 2.384302 -20.513662 -1.345369 2.005474 31.680924 10.752376 -2.522755 -37.801045 0.000000 0.000000 0.000000 -32.500045 -17.266050 9.452976 -28.940866 -9.385619 -2.951479 16.851593 -41.802840 -4.628551 0.000000 0.000000 0.000000 38.791931 -1.726345 -3.178848 46.874876 -2.706397 -8.207287 -7.142702 36.391122 -0.024828 0.000000 0.000000 0.000000 
0.047949 0.928443 0.146108 -4.832073 -1.771675 1.715982 5.724328 0.567309 14.533236 -0.437576 0.260650 -6.954432 2.145912 6.146917 5.018392 0.000000 0.000000 0.000000 -3.264970 2.091046 -25.917632 7.871459 -0.917339 4.129038 -8.652319 -21.064476 17.202020 0.000000 0.000000 0.000000 6.848977 -0.641695 5.423813 -7.179452 2.444779 -20.427750 -2.199867 1.337320 31.220537 10.361764 -2.588768 -37.310419 0.000000 0.000000 0.000000 -32.061833 -17.775054 10.434306 -28.386226 -11.092844 -2.726089 21.624721 -44.743903 -6.830212 0.000000 0.000000 0.000000 38.932690 -2.101621 -4.376186 46.944918 -3.884467 -8.311761 -7.577795 37.722619 -0.309997 0.000000 0.000000 0.000000 
0.043713 0.919257 0.184853 -4.039223 -1.489101 2.024289 4.724026 0.799907 16.380390 0.447936 0.192079 -6.353398 2.265759 6.173461 4.296711 0.000000 0.000000 0.000000 -2.997684 2.195778 -26.758783 5.632494 -0.572386 -0.454448 -8.603225 -20.947093 19.938726 0.000000 0.000000 0.000000 7.056520 -0.600459 4.842986 -6.664738 2.300307 -20.517353 -3.265488 0.034052 31.415966 9.827415 -2.704280 -36.247583 0.000000 0.000000 0.000000 -33.611007 -18.520442 11.776190 -27.089990 -11.720390 -2.679063 27.157256 -47.371900 -9.663456 0.000000 0.000000 0.000000 39.329631 -1.565628 -4.752746 46.427183 -5.815303 -8.670779 -8.206757 38.964425 -0.692363 0.000000 0.000000 0.000000 
